<svg xmlns="http://www.w3.org/2000/svg" version="1.1" xmlns:xlink="http://www.w3.org/1999/xlink" xmlns:svgjs="http://svgjs.dev/svgjs" width="1000" height="750" viewBox="0 0 1000 750"><rect width="1000" height="750" fill="#ffffff"></rect><g transform="matrix(0.834,0,0,0.834,82.49454545454546,80.18100000000004)"><svg viewBox="0 0 396 280" data-background-color="#ffffff" preserveAspectRatio="xMidYMid meet" height="707" width="1000" xmlns="http://www.w3.org/2000/svg" xmlns:xlink="http://www.w3.org/1999/xlink"><g id="tight-bounds" transform="matrix(1,0,0,1,0.2400000000000091,0)"><svg viewBox="0 0 395.52 280" height="280" width="395.52"><g><svg viewBox="0 0 395.52 280" height="280" width="395.52"><g><svg viewBox="0 0 395.52 280" height="280" width="395.52"><g><svg viewBox="0 0 395.52 280" height="280" width="395.52"><g><svg viewBox="0 0 395.52 280" height="280" width="395.52"><g transform="matrix(1,0,0,1,104.53504196836558,95.04328142477311)"><svg viewBox="0 0 186.44991606326883 89.91343715045379" height="89.91343715045379" width="186.44991606326883"><g><svg xmlns="http://www.w3.org/2000/svg" xmlns:xlink="http://www.w3.org/1999/xlink" version="1.1" x="0" y="0" viewBox="5 28.299 90.001 43.401999999999994" enable-background="new 0 0 100 100" xml:space="preserve" height="89.91343715045379" width="186.44991606326883" class="icon-ef-0" data-fill-palette-color="accent" id="ef-0"><g fill="#0074d9" data-fill-palette-color="accent"><path fill="none" d="M79.862 51.109c3.383 0 6.178-3.675 6.616-8.44-0.298 0.074-0.663 0.219-1.062 0.497 0 0 0.757-4.484-0.839-5.114 0 0-2.2 1.068-4.716 1.137-2.517-0.069-4.717-1.137-4.717-1.137-1.595 0.629-0.839 5.113-0.839 5.114-0.398-0.278-0.764-0.422-1.061-0.497C73.685 47.435 76.479 51.109 79.862 51.109z"></path><path fill="none" d="M50.095 51.426c4.35 0 7.942-4.725 8.507-10.852-0.383 0.096-0.853 0.282-1.364 0.639 0 0 0.972-5.767-1.079-6.575 0 0-2.829 1.374-6.063 1.462-3.235-0.088-6.064-1.462-6.064-1.462-2.051 0.809-1.079 6.575-1.079 6.575-0.512-0.357-0.981-0.543-1.364-0.639C42.152 46.701 45.745 51.426 50.095 51.426z"></path><path fill="none" d="M20.327 51.108c3.384 0 6.178-3.674 6.617-8.44-0.298 0.074-0.663 0.219-1.061 0.497 0 0 0.756-4.484-0.839-5.113 0 0-2.201 1.068-4.717 1.137-2.516-0.069-4.716-1.137-4.716-1.137-1.595 0.629-0.839 5.113-0.839 5.113-0.398-0.278-0.763-0.422-1.061-0.497C14.149 47.434 16.943 51.108 20.327 51.108z"></path><path d="M85.928 51.423c-0.041 1.823-2.74 3.292-6.065 3.292-3.326 0-6.025-1.469-6.065-3.292-2.561 0.234-4.84 1.436-6.476 3.233 2.441 2.606 3.926 6.101 3.926 9.878 0 0.817-0.075 1.572-0.218 2.272 1.142 0.072 2.385 0.072 3.688 0.072h10.291c5.519 0 9.992 0.014 9.992-5.506C95 56.166 91.016 51.889 85.928 51.423z" fill="#0074d9" data-fill-palette-color="accent"></path><path d="M72.303 42.392c0.006 0.072 0.012 0.144 0.019 0.215 0.481 5.456 3.674 9.671 7.541 9.671 3.866 0 7.058-4.216 7.54-9.671 0.007-0.072 0.013-0.144 0.019-0.215 0.034-0.237 0.058-0.477 0.071-0.72 0.01-0.167 0.016-0.333 0.016-0.501 0-0.415-0.029-0.823-0.087-1.221-0.559-3.866-3.73-6.828-7.559-6.828-3.829 0-7.001 2.961-7.56 6.828-0.057 0.398-0.087 0.806-0.087 1.221 0 0.168 0.006 0.335 0.016 0.501C72.246 41.915 72.269 42.155 72.303 42.392zM75.146 38.052c0 0 2.2 1.068 4.717 1.137 2.516-0.069 4.716-1.137 4.716-1.137 1.596 0.629 0.839 5.113 0.839 5.114 0.398-0.278 0.764-0.422 1.062-0.497-0.438 4.766-3.233 8.44-6.616 8.44-3.384 0-6.178-3.675-6.616-8.44 0.297 0.074 0.662 0.219 1.061 0.497C74.307 43.165 73.551 38.681 75.146 38.052z" fill="#0074d9" data-fill-palette-color="accent"></path><path d="M12.768 42.391c0.006 0.072 0.012 0.144 0.019 0.216 0.482 5.455 3.674 9.67 7.54 9.67 3.866 0 7.059-4.215 7.541-9.67 0.007-0.072 0.013-0.144 0.019-0.216 0.034-0.236 0.057-0.477 0.071-0.72 0.009-0.166 0.016-0.333 0.016-0.501 0-0.415-0.03-0.823-0.087-1.221-0.559-3.866-3.73-6.828-7.559-6.828-3.828 0-7 2.962-7.559 6.828-0.057 0.398-0.087 0.806-0.087 1.221 0 0.169 0.006 0.335 0.016 0.501C12.711 41.915 12.734 42.155 12.768 42.391zM15.61 38.052c0 0 2.201 1.068 4.716 1.137 2.516-0.069 4.717-1.137 4.717-1.137 1.595 0.629 0.839 5.113 0.839 5.113 0.398-0.278 0.763-0.422 1.061-0.497-0.439 4.766-3.233 8.44-6.617 8.44-3.383 0-6.177-3.674-6.616-8.44 0.298 0.074 0.663 0.219 1.061 0.497C14.771 43.165 14.016 38.681 15.61 38.052z" fill="#0074d9" data-fill-palette-color="accent"></path><path d="M33.017 54.501c-1.552-1.704-3.675-2.882-6.071-3.216-0.017-0.002-0.036-0.002-0.053-0.006-0.141-0.019-0.282-0.035-0.426-0.049 0 0.015-0.004 0.029-0.004 0.044-0.002 0.041-0.009 0.083-0.014 0.125-0.026 0.236-0.097 0.467-0.208 0.688-0.743 1.871-3.148 5.418-4.565 7.431l-0.292-4.182c0.413-0.213 0.77-0.563 0.998-0.972 0.164-0.293 0.265-0.612 0.265-0.938 0 0-1.057 0.468-2.135 0.468-0.062 0-0.123-0.002-0.185-0.005-0.062 0.003-0.123 0.005-0.185 0.005-1.078 0-2.135-0.468-2.135-0.468 0 0.325 0.101 0.645 0.265 0.938 0.228 0.408 0.584 0.759 0.998 0.972l-0.292 4.182c-1.417-2.013-3.822-5.56-4.565-7.431-0.11-0.221-0.181-0.451-0.208-0.688-0.005-0.042-0.012-0.084-0.014-0.125 0-0.015-0.004-0.029-0.005-0.044-0.143 0.014-0.284 0.03-0.425 0.049-0.018 0.004-0.036 0.004-0.053 0.006C8.787 51.971 5 56.194 5 61.305c0 5.587 4.53 5.574 10.117 5.574h5.209 5.21c1.277 0 2.498 0 3.624-0.066-0.143-0.701-0.219-1.459-0.219-2.278C28.941 60.681 30.487 57.123 33.017 54.501z" fill="#0074d9" data-fill-palette-color="accent"></path><path d="M40.376 40.217c0.007 0.093 0.015 0.185 0.023 0.277 0.62 7.015 4.724 12.435 9.695 12.435 4.971 0 9.075-5.42 9.694-12.435 0.009-0.092 0.017-0.184 0.023-0.277 0.045-0.304 0.074-0.612 0.093-0.925 0.011-0.213 0.02-0.428 0.02-0.645 0-0.533-0.038-1.058-0.112-1.57-0.719-4.97-4.796-8.778-9.718-8.778-4.922 0-9 3.809-9.719 8.778-0.074 0.513-0.112 1.037-0.112 1.57 0 0.217 0.009 0.432 0.021 0.645C40.303 39.605 40.332 39.913 40.376 40.217zM44.031 34.638c0 0 2.829 1.374 6.064 1.462 3.234-0.088 6.063-1.462 6.063-1.462 2.051 0.809 1.079 6.575 1.079 6.575 0.512-0.357 0.981-0.543 1.364-0.639-0.564 6.127-4.157 10.852-8.507 10.852-4.35 0-7.943-4.725-8.507-10.852 0.382 0.096 0.852 0.282 1.364 0.639C42.952 41.212 41.98 35.446 44.031 34.638z" fill="#0074d9" data-fill-palette-color="accent"></path><path d="M58.605 51.653c-0.021-0.003-0.046-0.004-0.068-0.009-0.182-0.023-0.363-0.045-0.547-0.063 0 0.02-0.006 0.038-0.006 0.056-0.003 0.055-0.012 0.106-0.019 0.161-0.034 0.305-0.124 0.6-0.267 0.885-0.956 2.405-4.049 6.966-5.869 9.555l-0.376-5.379c0.532-0.272 0.989-0.724 1.283-1.248 0.211-0.376 0.34-0.787 0.34-1.206 0 0-1.359 0.602-2.745 0.602-0.079 0-0.158-0.002-0.237-0.006-0.079 0.004-0.158 0.006-0.237 0.006-1.387 0-2.746-0.602-2.746-0.602 0 0.419 0.129 0.83 0.34 1.206 0.293 0.524 0.75 0.976 1.282 1.248l-0.375 5.379c-1.821-2.589-4.913-7.149-5.869-9.555-0.143-0.285-0.233-0.58-0.267-0.885-0.006-0.055-0.016-0.106-0.019-0.161 0-0.018-0.005-0.036-0.006-0.056-0.184 0.018-0.366 0.039-0.547 0.063-0.022 0.005-0.046 0.006-0.068 0.009-6.327 0.88-11.196 6.312-11.196 12.881 0 7.149 5.77 7.167 12.907 7.167 0.034 0 0.067 0 0.102 0h6.698 6.698c0.033 0 0.068 0 0.101 0 7.138 0 12.907-0.016 12.907-7.167C69.801 57.965 64.932 52.533 58.605 51.653z" fill="#0074d9" data-fill-palette-color="accent"></path></g></svg></g></svg></g><path d="M77.088 85.057L76.314 87.161C74.936 86.655 73.735 86.408 72.712 86.421 71.685 86.44 70.827 86.705 70.137 87.215 69.447 87.726 68.924 88.503 68.569 89.548V89.548L67.74 91.801 85.958 98.498C86.625 98.743 87.238 98.983 87.796 99.216 88.348 99.447 88.778 99.644 89.086 99.807V99.807C89.231 99.337 89.402 98.795 89.599 98.181 89.797 97.567 89.954 97.101 90.071 96.783V96.783L92.502 97.677 88.8 107.749 86.771 107.003C87 106.302 87.073 105.727 86.99 105.279 86.901 104.829 86.625 104.433 86.163 104.094 85.704 103.762 85.007 103.425 84.072 103.081V103.081L66.083 96.426 65.203 98.82C64.694 100.282 64.779 101.57 65.46 102.683 66.14 103.797 67.513 104.733 69.576 105.492V105.492L68.817 107.558 60.73 104.374 68.85 82.284ZM98.541 85.927L94.254 92.742 92.356 91.548C92.745 90.929 92.881 90.32 92.764 89.721 92.647 89.121 92.374 88.514 91.945 87.898 91.506 87.285 91.007 86.614 90.445 85.884V85.884L76.54 67.907 77.67 66.11 100.606 70.463C101.068 70.565 101.713 70.724 102.543 70.94 103.37 71.146 104.047 71.399 104.573 71.699V71.699C104.787 71.308 104.995 70.928 105.195 70.56 105.395 70.192 105.579 69.875 105.745 69.611V69.611L107.938 70.99 102.6 79.475 100.77 78.324C101.205 77.632 101.355 77.075 101.22 76.653 101.086 76.231 100.776 75.887 100.292 75.622 99.804 75.362 99.252 75.179 98.635 75.074V75.074L95.855 74.478 91.135 82.28 92.9 84.415C93.192 84.787 93.522 85.21 93.89 85.685 94.255 86.166 94.571 86.612 94.838 87.023V87.023C95.067 86.61 95.318 86.16 95.593 85.673 95.871 85.181 96.1 84.792 96.281 84.505V84.505ZM85.468 75.196L89.458 80.213 93.395 73.955 87.381 72.679C86.462 72.469 85.545 72.242 84.632 71.997 83.717 71.743 82.889 71.493 82.149 71.247V71.247L82.106 71.315C82.469 71.723 82.945 72.246 83.533 72.883 84.125 73.514 84.77 74.285 85.468 75.196ZM107.749 43.773L106.245 45.368C105.107 44.551 103.963 43.998 102.813 43.708 101.662 43.417 100.556 43.429 99.494 43.742 98.431 44.046 97.44 44.687 96.519 45.663V45.663C95.64 46.596 95.175 47.622 95.123 48.742 95.077 49.867 95.442 50.796 96.221 51.529V51.529C96.873 52.144 97.612 52.489 98.436 52.563 99.266 52.642 100.209 52.513 101.266 52.177 102.313 51.84 103.507 51.382 104.848 50.802V50.802C105.831 50.369 106.86 49.955 107.934 49.562 109.008 49.168 110.099 48.901 111.209 48.76 112.314 48.615 113.389 48.665 114.435 48.911 115.481 49.158 116.47 49.72 117.403 50.6V50.6C118.51 51.643 119.218 52.858 119.527 54.245 119.836 55.641 119.728 57.096 119.205 58.61 118.671 60.125 117.721 61.608 116.355 63.058V63.058C115.598 63.86 114.68 64.597 113.6 65.268 112.521 65.939 111.391 66.421 110.21 66.714V66.714L111.518 67.782 109.686 69.726 103.142 63.667 104.673 62.043C106.493 63.356 108.285 63.91 110.051 63.702 111.816 63.495 113.355 62.695 114.667 61.303V61.303C115.333 60.597 115.794 59.846 116.053 59.049 116.32 58.252 116.378 57.484 116.224 56.746 116.076 56.013 115.714 55.375 115.139 54.833V54.833C114.399 54.135 113.573 53.791 112.662 53.799 111.751 53.807 110.791 54.003 109.782 54.385 108.778 54.762 107.755 55.18 106.711 55.639V55.639C105.542 56.162 104.395 56.609 103.269 56.981 102.138 57.358 101.036 57.588 99.962 57.671 98.889 57.764 97.852 57.653 96.851 57.34 95.85 57.027 94.883 56.43 93.95 55.551V55.551C93.394 55.027 92.907 54.367 92.489 53.571 92.066 52.78 91.819 51.89 91.747 50.9 91.666 49.911 91.842 48.844 92.273 47.699 92.7 46.558 93.489 45.377 94.642 44.154V44.154C95.357 43.395 96.255 42.666 97.333 41.967 98.403 41.268 99.51 40.81 100.655 40.593V40.593L99.342 39.574 101.201 37.602ZM133.657 25.472L131.867 26.686C130.33 24.975 128.717 23.97 127.029 23.67 125.339 23.379 123.683 23.784 122.061 24.883V24.883C120.912 25.662 120.06 26.613 119.505 27.736 118.947 28.853 118.658 30.06 118.638 31.358 118.614 32.659 118.832 33.999 119.294 35.379 119.757 36.759 120.435 38.109 121.33 39.428V39.428C122.638 41.358 124.1 42.851 125.715 43.907 127.335 44.959 128.991 45.53 130.681 45.62 132.371 45.71 133.964 45.248 135.459 44.234V44.234C136.85 43.291 137.991 42.02 138.881 40.421 139.777 38.818 140.24 37.088 140.272 35.228V35.228L142.424 35.526C142.347 37.602 141.979 39.392 141.322 40.897 140.665 42.401 139.877 43.659 138.956 44.668 138.037 45.668 137.135 46.469 136.25 47.069V47.069C134.578 48.202 132.862 48.932 131.102 49.259 129.343 49.577 127.613 49.546 125.911 49.167 124.215 48.785 122.625 48.073 121.141 47.033 119.666 45.994 118.377 44.661 117.274 43.034V43.034C116.26 41.538 115.494 39.906 114.977 38.138 114.455 36.373 114.27 34.585 114.421 32.773 114.567 30.964 115.119 29.221 116.077 27.545 117.025 25.866 118.443 24.388 120.328 23.109V23.109C121.285 22.46 122.384 21.932 123.624 21.524 124.861 21.111 126.126 20.875 127.419 20.817V20.817L126.274 19.414 128.518 17.893ZM174.118 31.623L171.365 32.278C169.882 30.234 168.397 28.211 166.91 26.209 165.423 24.207 163.938 22.184 162.455 20.141V20.141C162.064 19.619 161.598 18.965 161.056 18.179 160.519 17.385 159.962 16.507 159.385 15.545 158.799 14.578 158.224 13.582 157.659 12.555V12.555C157.96 13.59 158.228 14.571 158.462 15.498 158.696 16.426 158.904 17.326 159.084 18.198V18.198C159.248 18.889 159.421 19.644 159.602 20.461 159.783 21.278 159.963 22.123 160.143 22.995 160.323 23.867 160.512 24.744 160.708 25.626 160.904 26.508 161.1 27.36 161.295 28.18V28.18C161.42 28.82 161.543 29.449 161.663 30.07 161.781 30.683 161.864 31.189 161.911 31.588V31.588C162.364 31.453 162.872 31.305 163.434 31.143 164.003 30.981 164.452 30.86 164.782 30.782V30.782L165.382 33.302 157.123 35.267 156.622 33.164C157.282 32.979 157.78 32.748 158.117 32.47 158.452 32.186 158.652 31.779 158.718 31.252 158.777 30.725 158.7 30.016 158.488 29.125V29.125L155.213 13.465C155.086 12.819 154.96 12.204 154.835 11.619 154.708 11.028 154.612 10.539 154.547 10.151V10.151C154.146 10.274 153.666 10.409 153.107 10.556 152.548 10.702 152.094 10.831 151.744 10.941V10.941L151.142 8.411 158.752 6.601 168.338 20.072C168.748 20.678 169.193 21.327 169.672 22.018 170.145 22.718 170.609 23.403 171.062 24.074 171.522 24.743 171.919 25.335 172.253 25.849V25.849L172.292 25.84C172.427 24.948 172.546 24.025 172.647 23.072 172.741 22.121 172.849 21.225 172.97 20.384V20.384C173.348 17.439 173.747 14.497 174.168 11.557 174.581 8.618 174.997 5.644 175.415 2.636V2.636L183.179 0.788 183.68 2.892C183.091 3.032 182.609 3.242 182.232 3.523 181.855 3.804 181.621 4.214 181.532 4.755 181.45 5.3 181.546 6.093 181.821 7.134V7.134L186.25 22.519C186.441 23.122 186.588 23.708 186.689 24.278 186.783 24.843 186.857 25.297 186.911 25.639V25.639C187.331 25.484 187.824 25.333 188.39 25.185 188.962 25.035 189.413 24.921 189.743 24.842V24.842L190.342 27.363 180.406 29.727 179.906 27.623C180.54 27.445 181.036 27.208 181.396 26.91 181.753 26.607 181.957 26.172 182.007 25.608 182.064 25.041 181.945 24.257 181.652 23.254V23.254L178.913 13.766C178.833 13.43 178.692 12.952 178.49 12.331 178.286 11.703 178.083 11.024 177.882 10.294 177.681 9.563 177.488 8.868 177.304 8.209V8.209C177.269 8.408 177.231 8.605 177.189 8.799 177.141 9.002 177.112 9.197 177.102 9.383V9.383ZM198.882 28.032L190.839 27.672 190.939 25.432C191.669 25.465 192.266 25.282 192.729 24.884 193.193 24.486 193.586 23.948 193.909 23.271 194.225 22.587 194.562 21.821 194.919 20.972V20.972L203.678 0 205.798 0.095 213.347 22.186C213.486 22.638 213.667 23.278 213.889 24.106 214.118 24.927 214.233 25.641 214.232 26.246V26.246C214.678 26.239 215.11 26.232 215.53 26.224 215.949 26.216 216.315 26.219 216.626 26.233V26.233L216.511 28.821 206.497 28.373 206.593 26.213C207.41 26.249 207.968 26.105 208.269 25.779 208.569 25.453 208.715 25.014 208.707 24.462 208.691 23.91 208.577 23.339 208.364 22.751V22.751L207.508 20.04 198.393 19.791 197.409 22.38C197.23 22.818 197.025 23.314 196.794 23.869 196.557 24.423 196.325 24.918 196.099 25.354V25.354C196.572 25.348 197.087 25.345 197.646 25.343 198.211 25.342 198.663 25.349 199.001 25.364V25.364ZM201.753 11.364L199.362 17.311 206.748 17.642 204.886 11.784C204.614 10.88 204.358 9.971 204.12 9.056 203.889 8.135 203.697 7.292 203.545 6.527V6.527L203.466 6.523C203.289 7.041 203.07 7.713 202.807 8.539 202.55 9.365 202.199 10.307 201.753 11.364ZM240.886 36.051L238.157 35.304 229.678 14.614C229.513 14.135 229.331 13.645 229.131 13.142 228.926 12.632 228.732 12.121 228.549 11.609V11.609L228.51 11.598 224.964 24.853C224.778 25.532 224.592 26.187 224.405 26.818 224.221 27.442 224.046 27.952 223.883 28.348V28.348C224.319 28.44 224.82 28.55 225.384 28.677 225.948 28.804 226.394 28.912 226.721 29.001V29.001L226.037 31.5 217.964 29.29 218.535 27.204C219.202 27.359 219.743 27.394 220.159 27.308 220.577 27.216 220.94 26.96 221.247 26.542 221.548 26.122 221.806 25.521 222.02 24.739V24.739L226.299 8.958C226.464 8.356 226.636 7.779 226.814 7.229 226.992 6.678 227.142 6.231 227.265 5.885V5.885C226.854 5.8 226.368 5.688 225.807 5.548 225.246 5.408 224.799 5.307 224.465 5.243V5.243L225.152 2.734 230.611 4.229 238.665 23.749C239.009 24.58 239.304 25.315 239.549 25.954 239.801 26.594 240.018 27.17 240.202 27.682V27.682L240.24 27.693 244.019 13.892C244.191 13.264 244.37 12.662 244.555 12.086 244.74 11.51 244.89 11.062 245.005 10.743V10.743C244.595 10.658 244.109 10.545 243.548 10.406 242.987 10.266 242.527 10.16 242.167 10.09V10.09L242.854 7.581 250.965 9.802 250.394 11.888C249.702 11.725 249.13 11.7 248.68 11.811 248.231 11.915 247.857 12.212 247.558 12.702 247.265 13.193 246.983 13.932 246.713 14.919V14.919ZM250.895 40.66L243.884 36.702 244.986 34.75C245.622 35.109 246.237 35.216 246.831 35.07 247.424 34.925 248.018 34.623 248.612 34.165 249.203 33.698 249.85 33.167 250.552 32.572V32.572L267.847 17.825 269.695 18.869 266.44 41.986C266.36 42.452 266.232 43.105 266.056 43.943 265.889 44.78 265.668 45.468 265.394 46.007V46.007C265.795 46.203 266.184 46.392 266.562 46.574 266.939 46.757 267.264 46.925 267.536 47.079V47.079L266.262 49.335 257.533 44.407 258.596 42.524C259.307 42.926 259.871 43.049 260.286 42.895 260.701 42.74 261.03 42.415 261.272 41.918 261.509 41.418 261.665 40.858 261.74 40.237V40.237L262.203 37.432 254.185 33.089 252.137 34.954C251.779 35.263 251.372 35.613 250.915 36.003 250.452 36.39 250.022 36.727 249.624 37.013V37.013C250.048 37.222 250.509 37.452 251.008 37.703 251.513 37.958 251.913 38.168 252.208 38.335V38.335ZM260.992 27.091L256.17 31.315 262.609 34.949 263.597 28.882C263.762 27.953 263.946 27.027 264.147 26.103 264.357 25.177 264.567 24.338 264.777 23.587V23.587L264.708 23.548C264.317 23.93 263.817 24.43 263.209 25.048 262.607 25.669 261.868 26.35 260.992 27.091ZM276.01 59.152V59.152C273.949 57.291 272.577 55.252 271.894 53.034 271.216 50.811 271.183 48.558 271.795 46.274 272.416 43.989 273.622 41.856 275.411 39.873V39.873C276.622 38.532 278.028 37.395 279.631 36.461 281.23 35.523 282.926 34.903 284.721 34.599 286.512 34.291 288.33 34.398 290.177 34.92 292.024 35.432 293.792 36.451 295.484 37.978V37.978C296.071 38.507 296.651 39.139 297.224 39.871 297.798 40.604 298.32 41.384 298.791 42.211 299.261 43.038 299.617 43.843 299.86 44.625V44.625L300.896 43.239 302.938 45.081 296.829 51.849 295.231 50.407C296.11 49.116 296.631 47.855 296.794 46.623 296.948 45.393 296.8 44.213 296.352 43.083 295.909 41.958 295.191 40.949 294.2 40.054V40.054C293.189 39.142 292.068 38.555 290.837 38.293 289.61 38.027 288.359 38.044 287.086 38.344 285.808 38.64 284.558 39.172 283.337 39.94 282.116 40.708 280.98 41.674 279.93 42.838V42.838C278.385 44.549 277.272 46.323 276.59 48.159 275.903 49.991 275.708 51.738 276.005 53.402 276.302 55.066 277.15 56.53 278.551 57.794V57.794C278.98 58.181 279.487 58.576 280.072 58.979 280.662 59.386 281.287 59.749 281.948 60.068 282.618 60.387 283.253 60.625 283.854 60.782V60.782L286.564 57.779C287.023 57.271 287.48 56.784 287.936 56.319 288.396 55.849 288.776 55.467 289.077 55.174V55.174C288.723 54.891 288.33 54.563 287.897 54.19 287.459 53.813 287.106 53.521 286.837 53.313V53.313L288.579 51.383 295.954 58.039 294.505 59.644C294.083 59.299 293.686 59.075 293.313 58.971 292.946 58.873 292.577 58.875 292.206 58.979 291.83 59.078 291.455 59.276 291.08 59.573 290.704 59.869 290.314 60.242 289.909 60.691V60.691L285.777 65.269 285.052 64.615C284.583 64.192 284.001 63.801 283.306 63.442 282.609 63.073 281.833 62.699 280.976 62.319V62.319C280.201 61.968 279.377 61.533 278.504 61.014 277.635 60.489 276.804 59.868 276.01 59.152ZM304.895 77.248L303.651 75.479C304.575 74.83 305.142 74.232 305.351 73.687 305.557 73.137 305.53 72.579 305.271 72.014 305.014 71.44 304.626 70.807 304.108 70.116V70.116L303.114 68.841 297.172 73.018C296.59 73.427 296.05 73.791 295.551 74.109 295.057 74.423 294.654 74.658 294.341 74.813V74.813L297.834 79.714C298.362 80.464 298.99 81.045 299.719 81.459 300.442 81.876 301.287 82.033 302.254 81.93 303.221 81.827 304.305 81.353 305.506 80.509V80.509L306.749 82.278 299.826 86.913 287.982 70.063 289.751 68.82C290.193 69.403 290.618 69.794 291.026 69.994 291.436 70.185 291.916 70.18 292.466 69.98 293.014 69.79 293.696 69.408 294.511 68.835V68.835L307.342 59.816C307.875 59.442 308.4 59.097 308.917 58.782 309.435 58.467 309.839 58.223 310.132 58.05V58.05C309.854 57.701 309.544 57.294 309.201 56.829 308.857 56.364 308.578 56 308.361 55.738V55.738L310.489 54.243 321.628 70.09 315.717 74.537 314.473 72.768C315.696 71.909 316.472 71.067 316.802 70.242 317.137 69.414 317.193 68.615 316.97 67.847 316.748 67.069 316.393 66.356 315.905 65.709V65.709L314.698 64.06C314.271 63.5 313.856 63.117 313.453 62.913 313.059 62.711 312.595 62.697 312.059 62.87 311.519 63.039 310.82 63.424 309.962 64.028V64.028L305.046 67.483 308.176 72.006 310.858 69.877 312.353 72.005ZM305.22 100.003L301.116 90.087 303.114 89.26C303.418 89.925 303.747 90.4 304.102 90.684 304.461 90.96 304.93 91.061 305.51 90.986 306.087 90.92 306.835 90.696 307.756 90.315V90.315L322.247 84.317C322.848 84.068 323.436 83.846 324.01 83.652 324.584 83.458 325.032 83.308 325.355 83.203V83.203C325.161 82.802 324.947 82.337 324.713 81.808 324.48 81.279 324.286 80.863 324.132 80.56V80.56L326.535 79.566C327.22 81.151 327.9 82.75 328.574 84.362 329.252 85.965 329.921 87.564 330.582 89.16V89.16C331.494 91.363 332.016 93.336 332.148 95.079 332.276 96.831 331.962 98.323 331.207 99.556 330.458 100.786 329.207 101.749 327.454 102.446V102.446C326.45 102.833 325.385 103.005 324.259 102.96 323.139 102.913 322.02 102.571 320.901 101.934 319.786 101.289 318.696 100.263 317.632 98.855V98.855C317.577 99.417 317.41 100.004 317.131 100.615 316.846 101.23 316.5 101.836 316.094 102.436V102.436L313.892 105.634C313.337 106.431 312.9 107.137 312.579 107.751 312.252 108.368 312.05 108.948 311.972 109.491 311.901 110.031 311.979 110.609 312.206 111.227V111.227L310.208 112.054 307.926 106.539C308.126 105.86 308.437 105.17 308.859 104.471 309.275 103.774 309.782 103.018 310.379 102.202V102.202L313.477 97.858C313.857 97.334 314.212 96.838 314.543 96.37 314.877 95.908 315.131 95.444 315.304 94.977V94.977C315.119 94.6 314.961 94.253 314.829 93.933 314.699 93.62 314.572 93.278 314.446 92.905V92.905L309.512 94.948C308.83 95.23 308.205 95.474 307.637 95.681 307.074 95.885 306.623 96.029 306.284 96.112V96.112C306.42 96.371 306.572 96.686 306.739 97.055 306.906 97.425 307.071 97.788 307.233 98.145 307.395 98.502 307.522 98.791 307.614 99.012V99.012ZM317.41 93.89V93.89C317.989 95.238 318.659 96.273 319.417 96.995 320.17 97.718 321.05 98.134 322.058 98.242 323.066 98.349 324.211 98.138 325.494 97.607V97.607C326.58 97.157 327.397 96.629 327.944 96.021 328.481 95.41 328.82 94.76 328.958 94.07 329.094 93.374 329.096 92.676 328.965 91.975 328.836 91.281 328.64 90.618 328.378 89.986V89.986C328.119 89.36 327.817 88.906 327.47 88.625 327.128 88.336 326.681 88.23 326.131 88.306 325.577 88.377 324.877 88.588 324.03 88.938V88.938L316.73 91.96C316.824 92.259 316.926 92.573 317.033 92.902 317.144 93.223 317.27 93.552 317.41 93.89ZM94.198 196.887L93.415 194.764C94.805 194.252 95.891 193.653 96.672 192.969 97.447 192.286 97.932 191.52 98.128 190.669 98.326 189.824 98.22 188.883 97.809 187.845V187.845L96.971 185.573 78.545 192.369C77.878 192.614 77.253 192.831 76.671 193.017 76.088 193.204 75.626 193.332 75.283 193.402V193.402C75.481 193.86 75.704 194.39 75.954 194.991 76.205 195.593 76.389 196.056 76.509 196.38V196.38L74.05 197.287 70.296 187.106 72.343 186.351C72.625 187.04 72.947 187.527 73.307 187.812 73.669 188.103 74.139 188.227 74.718 188.183 75.297 188.14 76.057 187.944 76.998 187.597V187.597L95.213 180.922 94.32 178.501C93.753 177.039 92.842 176.104 91.587 175.696 90.336 175.28 88.666 175.456 86.578 176.226V176.226L85.809 174.142 94.115 171.291 102.351 193.625ZM81.855 212.582L77.51 205.686 79.423 204.48C79.82 205.11 80.317 205.499 80.914 205.649 81.514 205.805 82.19 205.818 82.942 205.69 83.688 205.566 84.517 205.405 85.428 205.207V205.207L107.905 200.394 109.047 202.206 95.052 221.225C94.755 221.601 94.329 222.116 93.776 222.771 93.221 223.435 92.692 223.941 92.189 224.289V224.289C92.453 224.657 92.709 225.014 92.958 225.36 93.207 225.705 93.417 226.013 93.587 226.282V226.282L91.37 227.68 85.962 219.098 87.808 217.935C88.247 218.632 88.691 219.012 89.139 219.075 89.587 219.138 90.036 219.004 90.487 218.673 90.938 218.341 91.344 217.92 91.705 217.41V217.41L93.467 215.122 88.418 207.41 85.691 208.091C85.23 208.194 84.701 208.307 84.104 208.432 83.508 208.557 82.963 208.653 82.471 208.719V208.719C82.745 209.104 83.046 209.531 83.373 210 83.7 210.469 83.955 210.85 84.14 211.142V211.142ZM97.353 205.347L91.035 206.797 95.019 213.119 98.812 208.185C99.406 207.434 100.014 206.697 100.635 205.976 101.265 205.257 101.857 204.613 102.41 204.045V204.045L102.367 203.978C101.833 204.126 101.145 204.332 100.306 204.594 99.472 204.853 98.487 205.104 97.353 205.347ZM121.089 231.799L119.564 230.182C120.456 229.085 121.084 227.964 121.446 226.819 121.804 225.678 121.86 224.561 121.615 223.468 121.365 222.371 120.778 221.332 119.853 220.351V220.351C118.959 219.403 117.948 218.873 116.819 218.76 115.685 218.642 114.724 218.955 113.937 219.698V219.698C113.279 220.318 112.887 221.044 112.759 221.877 112.636 222.705 112.712 223.661 112.985 224.745 113.263 225.834 113.652 227.07 114.152 228.452V228.452C114.541 229.473 114.9 230.536 115.229 231.641 115.563 232.75 115.77 233.87 115.849 235 115.929 236.121 115.813 237.203 115.501 238.247 115.188 239.29 114.561 240.256 113.618 241.145V241.145C112.502 242.197 111.231 242.839 109.805 243.07 108.384 243.296 106.923 243.098 105.424 242.476 103.924 241.854 102.484 240.811 101.103 239.347V239.347C100.337 238.535 99.649 237.563 99.039 236.432 98.423 235.295 98.004 234.125 97.781 232.92V232.92L96.616 234.183 94.757 232.211 101.27 225.959 102.829 227.612C101.391 229.37 100.723 231.145 100.826 232.939 100.928 234.732 101.645 236.334 102.976 237.745V237.745C103.646 238.456 104.375 238.968 105.165 239.283 105.955 239.597 106.725 239.697 107.475 239.583 108.23 239.474 108.895 239.148 109.47 238.605V238.605C110.224 237.894 110.624 237.079 110.67 236.159 110.715 235.249 110.575 234.272 110.248 233.229 109.926 232.19 109.565 231.13 109.164 230.046V230.046C108.707 228.835 108.323 227.649 108.014 226.488 107.701 225.323 107.534 224.198 107.514 223.111 107.485 222.025 107.659 220.985 108.035 219.99 108.412 218.996 109.072 218.054 110.014 217.165V217.165C110.575 216.637 111.267 216.185 112.091 215.809 112.92 215.429 113.837 215.231 114.844 215.213 115.845 215.2 116.909 215.443 118.036 215.941 119.168 216.444 120.315 217.312 121.477 218.544V218.544C122.202 219.313 122.886 220.261 123.53 221.389 124.169 222.512 124.565 223.658 124.719 224.828V224.828L125.827 223.564 127.707 225.557ZM143.813 247.76L141.999 246.53C143.034 244.447 143.372 242.557 143.014 240.861 142.664 239.163 141.667 237.757 140.023 236.642V236.642C138.858 235.852 137.646 235.408 136.389 235.309 135.126 235.207 133.88 235.386 132.654 235.847 131.428 236.316 130.254 237.024 129.13 237.972 128.002 238.925 126.985 240.069 126.079 241.405V241.405C124.756 243.357 123.902 245.29 123.519 247.205 123.13 249.116 123.211 250.885 123.762 252.51 124.307 254.132 125.336 255.456 126.848 256.481V256.481C128.255 257.436 129.879 258.031 131.717 258.266 133.556 258.502 135.357 258.29 137.12 257.631V257.631L137.636 259.764C135.657 260.468 133.84 260.793 132.184 260.738 130.519 260.684 129.044 260.415 127.76 259.929 126.471 259.44 125.378 258.891 124.482 258.284V258.284C122.794 257.139 121.468 255.799 120.504 254.262 119.545 252.729 118.925 251.092 118.644 249.353 118.368 247.617 118.442 245.857 118.865 244.073 119.289 242.299 120.059 240.589 121.174 238.946V238.946C122.199 237.434 123.445 236.099 124.911 234.943 126.38 233.796 127.993 232.955 129.751 232.422 131.507 231.879 133.349 231.744 135.276 232.015 137.212 232.284 139.134 233.066 141.042 234.359V234.359C142.004 235.012 142.912 235.844 143.766 236.857 144.615 237.866 145.309 238.967 145.849 240.159V240.159L146.74 238.561 149.008 240.099ZM169.222 276.254L166.431 275.586C166.03 273.065 165.615 270.562 165.186 268.075 164.763 265.59 164.347 263.087 163.94 260.564V260.564C163.824 259.908 163.702 259.104 163.575 258.151 163.449 257.192 163.348 256.144 163.272 255.005 163.188 253.872 163.124 252.712 163.08 251.527V251.527C162.878 252.599 162.672 253.605 162.461 254.545 162.248 255.491 162.023 256.4 161.787 257.273V257.273C161.622 257.964 161.434 258.721 161.223 259.545 161.012 260.369 160.789 261.214 160.555 262.08 160.319 262.952 160.088 263.83 159.864 264.712 159.637 265.6 159.425 266.458 159.227 267.285V267.285C159.049 267.918 158.872 268.542 158.698 269.156 158.524 269.77 158.364 270.264 158.22 270.64V270.64C158.691 270.725 159.217 270.824 159.798 270.935 160.386 271.049 160.848 271.146 161.184 271.226V271.226L160.574 273.775 152.221 271.776 152.729 269.653C153.407 269.788 153.963 269.805 154.397 269.704 154.831 269.603 155.197 269.329 155.495 268.881 155.794 268.433 156.05 267.761 156.265 266.863V266.863L160.457 251.227C160.638 250.587 160.805 249.975 160.958 249.39 161.114 248.799 161.25 248.313 161.369 247.931V247.931C160.949 247.858 160.454 247.76 159.882 247.637 159.311 247.514 158.841 247.422 158.473 247.361V247.361L159.083 244.813 166.777 246.654 169.276 263.183C169.374 263.917 169.478 264.707 169.59 265.553 169.702 266.4 169.811 267.228 169.917 268.039 170.022 268.857 170.11 269.575 170.181 270.192V270.192L170.219 270.202C170.747 269.454 171.272 268.671 171.796 267.854 172.317 267.043 172.826 266.287 173.322 265.586V265.586C175.009 263.1 176.712 260.625 178.428 258.161 180.15 255.704 181.883 253.213 183.629 250.686V250.686L191.478 252.565 190.97 254.687C190.376 254.545 189.844 254.513 189.374 254.592 188.911 254.672 188.516 254.94 188.188 255.394 187.861 255.848 187.584 256.605 187.358 257.664V257.664L184.329 273.578C184.227 274.203 184.092 274.795 183.924 275.356 183.749 275.915 183.608 276.36 183.502 276.69V276.69C183.947 276.741 184.462 276.83 185.047 276.957 185.631 277.083 186.092 277.186 186.427 277.267V277.267L185.818 279.815 175.769 277.411 176.276 275.288C176.922 275.416 177.477 275.425 177.939 275.317 178.402 275.21 178.788 274.913 179.095 274.426 179.403 273.94 179.654 273.177 179.848 272.137V272.137L181.704 262.326C181.784 261.99 181.876 261.492 181.979 260.834 182.082 260.176 182.209 259.472 182.361 258.723 182.515 257.967 182.659 257.25 182.794 256.572V256.572C182.673 256.735 182.546 256.895 182.412 257.055 182.278 257.214 182.164 257.378 182.069 257.546V257.546ZM199.604 279.642L191.461 280 191.362 277.74C192.105 277.708 192.69 277.469 193.116 277.025 193.548 276.58 193.895 276 194.156 275.284 194.418 274.574 194.688 273.774 194.968 272.884V272.884L201.925 250.976 204.065 250.881 213.65 272.462C213.83 272.906 214.066 273.531 214.361 274.336 214.663 275.147 214.84 275.857 214.894 276.467V276.467C215.344 276.42 215.781 276.375 216.204 276.329 216.628 276.284 216.999 276.255 217.317 276.241V276.241L217.432 278.859 207.299 279.304 207.203 277.124C208.026 277.088 208.576 276.891 208.852 276.533 209.129 276.175 209.236 275.718 209.171 275.162 209.107 274.607 208.943 274.045 208.678 273.479V273.479L207.564 270.815 198.363 271.379 197.604 274.085C197.465 274.537 197.301 275.052 197.114 275.632 196.926 276.213 196.74 276.733 196.554 277.193V277.193C197.024 277.146 197.544 277.096 198.113 277.045 198.683 276.993 199.14 276.96 199.485 276.945V276.945ZM200.999 262.596L199.127 268.802 206.593 268.474 204.187 262.735C203.829 261.846 203.49 260.954 203.171 260.057 202.859 259.153 202.593 258.32 202.373 257.558V257.558L202.294 257.562C202.158 258.1 201.996 258.798 201.807 259.658 201.619 260.511 201.349 261.49 200.999 262.596ZM246.359 271.861L243.59 272.616 225.57 258.95C225.176 258.617 224.765 258.282 224.335 257.944 223.899 257.609 223.469 257.268 223.045 256.923V256.923L223.006 256.933 226.732 270.294C226.919 270.979 227.093 271.644 227.255 272.289 227.417 272.933 227.529 273.467 227.589 273.892V273.892C228.018 273.747 228.508 273.586 229.058 273.408 229.615 273.229 230.06 273.094 230.393 273.003V273.003L231.083 275.531 222.912 277.759 222.338 275.654C222.997 275.447 223.487 275.196 223.806 274.902 224.125 274.609 224.31 274.2 224.36 273.677 224.41 273.154 224.328 272.498 224.113 271.71V271.71L219.723 255.763C219.557 255.154 219.41 254.564 219.282 253.993 219.153 253.422 219.053 252.954 218.981 252.588V252.588C218.578 252.725 218.096 252.877 217.536 253.044 216.975 253.211 216.532 253.352 216.205 253.469V253.469L215.516 250.941 221.044 249.433 238.099 262.288C238.826 262.833 239.462 263.321 240.006 263.751 240.548 264.175 241.03 264.563 241.45 264.917V264.917L241.488 264.906 237.682 250.948C237.509 250.314 237.355 249.698 237.22 249.102 237.084 248.505 236.984 248.037 236.919 247.696V247.696C236.522 247.832 236.044 247.983 235.483 248.15 234.923 248.317 234.466 248.462 234.115 248.585V248.585L233.425 246.057 241.635 243.818 242.209 245.923C241.524 246.138 241.012 246.408 240.674 246.734 240.336 247.061 240.164 247.514 240.157 248.094 240.156 248.673 240.291 249.459 240.562 250.452V250.452ZM260.446 264.562L253.345 268.562 252.235 266.591C252.883 266.226 253.297 265.749 253.476 265.161 253.661 264.568 253.708 263.894 253.617 263.137 253.529 262.386 253.409 261.55 253.257 260.63V260.63L249.558 237.942 251.425 236.891 269.73 251.808C270.091 252.123 270.585 252.573 271.211 253.158 271.847 253.745 272.326 254.299 272.65 254.818V254.818C273.03 254.573 273.399 254.335 273.756 254.103 274.114 253.871 274.431 253.677 274.709 253.521V253.521L275.995 255.804 267.157 260.782 266.086 258.881C266.804 258.477 267.206 258.052 267.291 257.608 267.376 257.163 267.264 256.708 266.956 256.241 266.647 255.775 266.247 255.348 265.755 254.962V254.962L263.556 253.09 255.604 257.752 256.151 260.509C256.23 260.975 256.318 261.509 256.413 262.111 256.508 262.713 256.577 263.261 256.619 263.756V263.756C257.017 263.502 257.458 263.222 257.943 262.919 258.428 262.615 258.82 262.379 259.121 262.209V262.209ZM253.985 248.726L255.121 255.108 261.632 251.44 256.892 247.409C256.171 246.779 255.465 246.135 254.775 245.479 254.088 244.814 253.474 244.192 252.934 243.612V243.612L252.865 243.651C252.987 244.192 253.158 244.888 253.378 245.74 253.596 246.586 253.798 247.581 253.985 248.726ZM289.98 244.487V244.487C287.892 246.367 285.695 247.531 283.391 247.98 281.09 248.433 278.822 248.232 276.586 247.377 274.354 246.517 272.334 245.082 270.525 243.073V243.073C269.302 241.716 268.301 240.182 267.52 238.471 266.749 236.761 266.305 234.988 266.19 233.152 266.065 231.316 266.36 229.499 267.075 227.702 267.79 225.896 269.004 224.222 270.717 222.679V222.679C271.305 222.15 271.997 221.634 272.795 221.13 273.593 220.626 274.432 220.183 275.313 219.801 276.198 219.415 277.045 219.139 277.854 218.975V218.975L276.568 217.786 278.642 215.919 284.809 222.768 283.18 224.235C281.978 223.217 280.766 222.561 279.544 222.266 278.322 221.981 277.119 222.005 275.935 222.338 274.756 222.667 273.665 223.283 272.663 224.185V224.185C271.637 225.11 270.929 226.176 270.542 227.383 270.149 228.595 270.033 229.856 270.195 231.168 270.367 232.479 270.773 233.79 271.415 235.098 272.061 236.411 272.915 237.657 273.978 238.837V238.837C275.538 240.57 277.205 241.875 278.979 242.754 280.749 243.636 282.488 244.014 284.197 243.888 285.902 243.765 287.462 243.066 288.879 241.79V241.79C289.313 241.399 289.766 240.929 290.237 240.38 290.708 239.831 291.136 239.239 291.522 238.606 291.913 237.968 292.218 237.353 292.437 236.763V236.763L289.697 233.719C289.234 233.206 288.793 232.696 288.373 232.19 287.948 231.678 287.603 231.256 287.338 230.922V230.922C287.021 231.244 286.649 231.606 286.223 232.007 285.798 232.408 285.468 232.731 285.234 232.978V232.978L283.481 231.031 290.952 224.303 292.412 225.924C292.015 226.317 291.746 226.694 291.605 227.053 291.464 227.413 291.425 227.787 291.49 228.176 291.554 228.565 291.716 228.964 291.977 229.373 292.234 229.777 292.566 230.206 292.975 230.66V230.66L297.149 235.295 296.416 235.955C295.942 236.382 295.486 236.927 295.047 237.591 294.612 238.25 294.157 238.99 293.681 239.812V239.812C293.247 240.561 292.724 241.345 292.112 242.164 291.495 242.988 290.784 243.762 289.98 244.487ZM305.041 210.907L303.784 212.691C302.85 212.032 302.086 211.697 301.493 211.686 300.905 211.678 300.383 211.894 299.925 212.336 299.468 212.777 298.999 213.361 298.52 214.088V214.088L297.643 215.469 303.654 219.706C304.235 220.116 304.762 220.504 305.235 220.87 305.708 221.236 306.071 221.54 306.323 221.783V221.783L309.798 216.784C310.33 216.029 310.671 215.233 310.822 214.397 310.969 213.566 310.827 212.706 310.397 211.818 309.972 210.933 309.152 210.062 307.935 209.205V209.205L309.193 207.421 315.973 212.433 303.969 229.462 302.186 228.205C302.593 227.581 302.819 227.042 302.864 226.586 302.909 226.13 302.744 225.672 302.369 225.213 301.994 224.753 301.396 224.235 300.576 223.657V223.657L287.611 214.517C287.073 214.138 286.566 213.757 286.09 213.372 285.613 212.987 285.242 212.685 284.975 212.464V212.464C284.736 212.848 284.454 213.283 284.128 213.769 283.802 214.254 283.55 214.646 283.373 214.943V214.943L281.231 213.434 292.523 197.414 298.769 201.524 297.506 203.316C296.268 202.443 295.203 201.989 294.31 201.953 293.408 201.918 292.626 202.14 291.965 202.616 291.304 203.093 290.749 203.673 290.3 204.356V204.356L289.138 206.073C288.75 206.669 288.529 207.191 288.473 207.64 288.417 208.088 288.562 208.54 288.907 208.995 289.253 209.45 289.858 209.981 290.721 210.59V210.59L295.689 214.092 298.93 209.562 295.99 207.733 297.5 205.591ZM323.388 195.685L319.223 205.705 317.208 204.867C317.469 204.17 317.572 203.594 317.516 203.139 317.461 202.684 317.2 202.274 316.733 201.907 316.267 201.541 315.571 201.165 314.645 200.78V200.78L299.997 194.691C299.39 194.439 298.812 194.177 298.263 193.905 297.714 193.634 297.285 193.42 296.976 193.262V193.262C296.827 193.69 296.647 194.176 296.434 194.721 296.222 195.266 296.062 195.703 295.954 196.032V196.032L293.534 195.026C294.183 193.396 294.839 191.766 295.502 190.136 296.166 188.505 296.833 186.883 297.504 185.27V185.27C298.429 183.043 299.473 181.258 300.636 179.914 301.79 178.574 303.079 177.732 304.503 177.389 305.917 177.049 307.503 177.258 309.259 178.017V178.017C310.249 178.457 311.13 179.097 311.903 179.937 312.673 180.767 313.227 181.814 313.565 183.077 313.906 184.334 313.951 185.845 313.699 187.611V187.611C314.138 187.246 314.68 186.946 315.324 186.711 315.969 186.475 316.65 186.291 317.367 186.157V186.157L321.235 185.445C322.193 185.268 323.01 185.079 323.683 184.877 324.36 184.669 324.919 184.397 325.36 184.063 325.801 183.728 326.161 183.259 326.441 182.656V182.656L328.456 183.494 326.134 189.079C325.505 189.415 324.79 189.682 323.988 189.881 323.192 190.082 322.287 190.26 321.274 190.414V190.414L315.953 191.299C315.311 191.407 314.705 191.507 314.133 191.6 313.562 191.694 313.047 191.843 312.588 192.048V192.048C312.449 192.451 312.314 192.811 312.181 193.13 312.048 193.449 311.893 193.788 311.716 194.146V194.146L316.712 196.222C317.393 196.505 318.01 196.776 318.564 197.036 319.118 197.295 319.545 197.515 319.843 197.697V197.697C319.931 197.417 320.048 197.084 320.193 196.699 320.339 196.313 320.483 195.934 320.623 195.561 320.761 195.194 320.876 194.9 320.968 194.679V194.679ZM310.312 191.318V191.318C310.856 189.94 311.118 188.721 311.098 187.662 311.075 186.61 310.744 185.685 310.105 184.886 309.459 184.086 308.489 183.416 307.195 182.878V182.878C306.091 182.419 305.127 182.213 304.302 182.258 303.483 182.307 302.775 182.53 302.178 182.929 301.583 183.322 301.083 183.816 300.678 184.41 300.272 185.004 299.937 185.62 299.672 186.258V186.258C299.409 186.89 299.3 187.43 299.343 187.88 299.386 188.33 299.631 188.726 300.078 189.07 300.525 189.414 301.175 189.764 302.027 190.118V190.118L309.406 193.186C309.553 192.901 309.705 192.605 309.862 192.296 310.02 191.987 310.17 191.661 310.312 191.318ZM62.132 143.973C62.132 138.02 66.958 133.194 72.911 133.194 78.864 133.194 83.691 138.02 83.691 143.973 83.691 149.926 78.864 154.752 72.911 154.752 66.958 154.752 62.132 149.926 62.132 143.973ZM313.231 143.973C313.231 138.02 318.057 133.194 324.01 133.194 329.964 133.194 334.79 138.02 334.79 143.973 334.79 149.926 329.964 154.752 324.01 154.752 318.057 154.752 313.231 149.926 313.231 143.973Z" fill="#0074d9" data-fill-palette-color="primary"></path></svg></g></svg></g></svg></g></svg></g><defs></defs></svg><rect width="395.52" height="280" fill="none" stroke="none" visibility="hidden"></rect></g></svg></g></svg>